P1
# CREATOR: GIMP PNM Filter Version 1.1
72 8
1111000000000000001000000000000000001000001000000000000001000000000000
0000010000000000000010000000000000000011100110000000000000010000000000
0000000101111101111101111011111001111000101011101111101111101111011111
0011110001000001010001001000000010010000001001101000001010001001000000
0100100000010111110100010010001111100100000010010010111110100010010001
1111001000000101000101000100100010001001000000100000101000101000100100
0100010010001001010011010001001100100110010000001000001010011010001001
1001001100100001100011010100010001100110100100000010000010011010100010
0011001101001000